<mxfile host="app.diagrams.net" agent="Mozilla/5.0 (X11; Linux x86_64) AppleWebKit/537.36 (KHTML, like Gecko) Chrome/135.0.0.0 Safari/537.36" version="26.2.14">
  <diagram name="Page-1" id="LEXHKbd-PP-okQIsivCs">
    <mxGraphModel dx="1188" dy="938" grid="1" gridSize="10" guides="1" tooltips="1" connect="1" arrows="1" fold="1" page="1" pageScale="1" pageWidth="850" pageHeight="1100" background="none" math="0" shadow="0">
      <root>
        <mxCell id="0" />
        <mxCell id="1" parent="0" />
        <mxCell id="LZcOLRSRyZYhKl0eXgGW-2" value="&lt;div&gt;&lt;font style=&quot;font-size: 10px;&quot;&gt;Κεντρική σελίδα&amp;nbsp;&lt;/font&gt;&lt;/div&gt;&lt;div&gt;&lt;span style=&quot;font-size: 10px; background-color: transparent; color: light-dark(rgb(0, 0, 0), rgb(255, 255, 255));&quot;&gt;UI&lt;/span&gt;&lt;/div&gt;" style="shape=umlBoundary;whiteSpace=wrap;html=1;rounded=1;" parent="1" vertex="1">
          <mxGeometry x="230" y="320" width="100" height="80" as="geometry" />
        </mxCell>
        <mxCell id="LZcOLRSRyZYhKl0eXgGW-5" value="Εμφάνιση&amp;nbsp;&lt;br&gt;Activities" style="ellipse;shape=umlControl;whiteSpace=wrap;html=1;rounded=1;" parent="1" vertex="1">
          <mxGeometry x="410" y="320" width="70" height="80" as="geometry" />
        </mxCell>
        <mxCell id="LZcOLRSRyZYhKl0eXgGW-8" value="" style="endArrow=none;html=1;rounded=1;" parent="1" edge="1">
          <mxGeometry width="50" height="50" relative="1" as="geometry">
            <mxPoint x="450" y="330" as="sourcePoint" />
            <mxPoint x="450" y="270" as="targetPoint" />
          </mxGeometry>
        </mxCell>
        <mxCell id="LZcOLRSRyZYhKl0eXgGW-9" value="&lt;div&gt;&lt;font style=&quot;font-size: 10px;&quot;&gt;Activities&lt;/font&gt;&lt;/div&gt;&lt;div&gt;&lt;font style=&quot;font-size: 10px;&quot;&gt;χρήστη&amp;nbsp;&lt;/font&gt;&lt;/div&gt;" style="ellipse;shape=umlEntity;whiteSpace=wrap;html=1;rounded=1;" parent="1" vertex="1">
          <mxGeometry x="410" y="190" width="80" height="80" as="geometry" />
        </mxCell>
        <mxCell id="LZcOLRSRyZYhKl0eXgGW-11" value="&lt;div&gt;&lt;font style=&quot;font-size: 10px;&quot;&gt;Σελίδα Activities&lt;/font&gt;&lt;/div&gt;&lt;div&gt;&lt;font style=&quot;font-size: 10px;&quot;&gt;UI&lt;/font&gt;&lt;/div&gt;" style="shape=umlBoundary;whiteSpace=wrap;html=1;rounded=1;" parent="1" vertex="1">
          <mxGeometry x="230" y="460" width="100" height="80" as="geometry" />
        </mxCell>
        <mxCell id="LZcOLRSRyZYhKl0eXgGW-42" value="" style="endArrow=classic;html=1;rounded=1;" parent="1" edge="1">
          <mxGeometry width="50" height="50" relative="1" as="geometry">
            <mxPoint x="340" y="359.71" as="sourcePoint" />
            <mxPoint x="400" y="359.71" as="targetPoint" />
            <Array as="points">
              <mxPoint x="380" y="359.71" />
            </Array>
          </mxGeometry>
        </mxCell>
        <mxCell id="LZcOLRSRyZYhKl0eXgGW-45" value="" style="endArrow=classic;html=1;rounded=0;curved=1;" parent="1" edge="1">
          <mxGeometry width="50" height="50" relative="1" as="geometry">
            <mxPoint x="290" y="550" as="sourcePoint" />
            <mxPoint x="360" y="580" as="targetPoint" />
            <Array as="points">
              <mxPoint x="300" y="580" />
            </Array>
          </mxGeometry>
        </mxCell>
        <mxCell id="hcNPmu_po3u3cjIv4rGL-1" value="User" style="shape=umlActor;verticalLabelPosition=bottom;verticalAlign=top;html=1;" vertex="1" parent="1">
          <mxGeometry x="10" y="330" width="40" height="80" as="geometry" />
        </mxCell>
        <mxCell id="hcNPmu_po3u3cjIv4rGL-2" value="" style="endArrow=classic;html=1;rounded=0;" edge="1" parent="1">
          <mxGeometry width="50" height="50" relative="1" as="geometry">
            <mxPoint x="70" y="360" as="sourcePoint" />
            <mxPoint x="220" y="360" as="targetPoint" />
          </mxGeometry>
        </mxCell>
        <mxCell id="hcNPmu_po3u3cjIv4rGL-3" value="Επιλέγει&amp;nbsp;&lt;br&gt;&quot;Manage Activities&quot;" style="text;html=1;align=center;verticalAlign=middle;whiteSpace=wrap;rounded=0;" vertex="1" parent="1">
          <mxGeometry x="90" y="320" width="110" height="30" as="geometry" />
        </mxCell>
        <mxCell id="hcNPmu_po3u3cjIv4rGL-4" value="" style="endArrow=classic;html=1;rounded=0;" edge="1" parent="1">
          <mxGeometry width="50" height="50" relative="1" as="geometry">
            <mxPoint x="440" y="410" as="sourcePoint" />
            <mxPoint x="350" y="490" as="targetPoint" />
          </mxGeometry>
        </mxCell>
        <mxCell id="hcNPmu_po3u3cjIv4rGL-5" value="" style="endArrow=classic;html=1;rounded=0;" edge="1" parent="1">
          <mxGeometry width="50" height="50" relative="1" as="geometry">
            <mxPoint x="70" y="400" as="sourcePoint" />
            <mxPoint x="210" y="490" as="targetPoint" />
          </mxGeometry>
        </mxCell>
        <mxCell id="hcNPmu_po3u3cjIv4rGL-6" value="Επιλέγει&amp;nbsp;&lt;br&gt;&quot;Create&quot; / &quot;Edit&quot;" style="text;html=1;align=center;verticalAlign=middle;whiteSpace=wrap;rounded=0;rotation=30;" vertex="1" parent="1">
          <mxGeometry x="100" y="410" width="110" height="30" as="geometry" />
        </mxCell>
        <mxCell id="hcNPmu_po3u3cjIv4rGL-7" value="Create Activity" style="ellipse;whiteSpace=wrap;html=1;" vertex="1" parent="1">
          <mxGeometry x="375" y="540" width="115" height="60" as="geometry" />
        </mxCell>
        <mxCell id="hcNPmu_po3u3cjIv4rGL-14" value="Edit Activity" style="ellipse;whiteSpace=wrap;html=1;" vertex="1" parent="1">
          <mxGeometry x="375" y="625" width="115" height="60" as="geometry" />
        </mxCell>
        <mxCell id="hcNPmu_po3u3cjIv4rGL-15" value="" style="endArrow=classic;html=1;rounded=0;curved=1;" edge="1" parent="1">
          <mxGeometry width="50" height="50" relative="1" as="geometry">
            <mxPoint x="270" y="550" as="sourcePoint" />
            <mxPoint x="370" y="640" as="targetPoint" />
            <Array as="points">
              <mxPoint x="230" y="620" />
              <mxPoint x="230" y="630" />
              <mxPoint x="240" y="640" />
              <mxPoint x="250" y="640" />
            </Array>
          </mxGeometry>
        </mxCell>
        <mxCell id="hcNPmu_po3u3cjIv4rGL-16" value="&quot;Create Activity&quot;" style="text;html=1;align=center;verticalAlign=middle;whiteSpace=wrap;rounded=0;" vertex="1" parent="1">
          <mxGeometry x="230" y="640" width="110" height="30" as="geometry" />
        </mxCell>
        <mxCell id="hcNPmu_po3u3cjIv4rGL-17" value="&quot;Edit Activity&quot;" style="text;html=1;align=center;verticalAlign=middle;whiteSpace=wrap;rounded=0;" vertex="1" parent="1">
          <mxGeometry x="277.5" y="580" width="110" height="30" as="geometry" />
        </mxCell>
      </root>
    </mxGraphModel>
  </diagram>
</mxfile>
